  0
SECTION
  2
HEADER
  9
$ACADVER
  1
AC1009
  9
$INSBASE
 10
0.0
 20
0.0
 30
0.0
  9
$EXTMIN
 10
4.4803266308446252
 20
-1.6255988929781711
 30
0.0
  9
$EXTMAX
 10
57.48032663084463
 20
61.374401107021832
 30
0.0
  9
$LIMMIN
 10
0.0
 20
0.0
  9
$LIMMAX
 10
12.0
 20
9.0
  9
$ORTHOMODE
 70
     0
  9
$REGENMODE
 70
     1
  9
$FILLMODE
 70
     1
  9
$QTEXTMODE
 70
     0
  9
$MIRRTEXT
 70
     0
  9
$DRAGMODE
 70
     2
  9
$LTSCALE
 40
1.0
  9
$OSMODE
 70
  2559
  9
$ATTMODE
 70
     1
  9
$TEXTSIZE
 40
0.2
  9
$TRACEWID
 40
0.05
  9
$TEXTSTYLE
  7
STANDARD
  9
$CLAYER
  8
0
  9
$CELTYPE
  6
BYLAYER
  9
$CECOLOR
 62
   256
  9
$DIMSCALE
 40
1.0
  9
$DIMASZ
 40
0.18
  9
$DIMEXO
 40
0.0625
  9
$DIMDLI
 40
0.38
  9
$DIMRND
 40
0.0
  9
$DIMDLE
 40
0.0
  9
$DIMEXE
 40
0.18
  9
$DIMTP
 40
0.0
  9
$DIMTM
 40
0.0
  9
$DIMTXT
 40
0.18
  9
$DIMCEN
 40
0.09
  9
$DIMTSZ
 40
0.0
  9
$DIMTOL
 70
     0
  9
$DIMLIM
 70
     0
  9
$DIMTIH
 70
     1
  9
$DIMTOH
 70
     1
  9
$DIMSE1
 70
     0
  9
$DIMSE2
 70
     0
  9
$DIMTAD
 70
     0
  9
$DIMZIN
 70
     0
  9
$DIMBLK
  1

  9
$DIMASO
 70
     1
  9
$DIMSHO
 70
     1
  9
$DIMPOST
  1

  9
$DIMAPOST
  1

  9
$DIMALT
 70
     0
  9
$DIMALTD
 70
     2
  9
$DIMALTF
 40
25.399999999999999
  9
$DIMLFAC
 40
1.0
  9
$DIMTOFL
 70
     0
  9
$DIMTVP
 40
0.0
  9
$DIMTIX
 70
     0
  9
$DIMSOXD
 70
     0
  9
$DIMSAH
 70
     0
  9
$DIMBLK1
  1

  9
$DIMBLK2
  1

  9
$DIMSTYLE
  2
STANDARD
  9
$DIMCLRD
 70
     0
  9
$DIMCLRE
 70
     0
  9
$DIMCLRT
 70
     0
  9
$DIMTFAC
 40
1.0
  9
$DIMGAP
 40
0.09
  9
$LUNITS
 70
     2
  9
$LUPREC
 70
     4
  9
$SKETCHINC
 40
0.1
  9
$FILLETRAD
 40
0.0
  9
$AUNITS
 70
     0
  9
$AUPREC
 70
     0
  9
$MENU
  1
.
  9
$ELEVATION
 40
0.0
  9
$PELEVATION
 40
0.0
  9
$THICKNESS
 40
0.0
  9
$LIMCHECK
 70
     0
  9
$BLIPMODE
 70
     0
  9
$CHAMFERA
 40
0.0
  9
$CHAMFERB
 40
0.0
  9
$SKPOLY
 70
     0
  9
$TDCREATE
 40
2457534.8703054748
  9
$TDUPDATE
 40
2457534.8880109382
  9
$TDINDWG
 40
0.0062531944
  9
$TDUSRTIMER
 40
0.0062530787
  9
$USRTIMER
 70
     1
  9
$ANGBASE
 50
0.0
  9
$ANGDIR
 70
     0
  9
$PDMODE
 70
     0
  9
$PDSIZE
 40
0.0
  9
$PLINEWID
 40
0.0
  9
$COORDS
 70
     1
  9
$SPLFRAME
 70
     0
  9
$SPLINETYPE
 70
     6
  9
$SPLINESEGS
 70
     8
  9
$ATTDIA
 70
     0
  9
$ATTREQ
 70
     1
  9
$HANDLING
 70
     1
  9
$HANDSEED
  5
319
  9
$SURFTAB1
 70
     6
  9
$SURFTAB2
 70
     6
  9
$SURFTYPE
 70
     6
  9
$SURFU
 70
     6
  9
$SURFV
 70
     6
  9
$UCSNAME
  2

  9
$UCSORG
 10
0.0
 20
0.0
 30
0.0
  9
$UCSXDIR
 10
1.0
 20
0.0
 30
0.0
  9
$UCSYDIR
 10
0.0
 20
1.0
 30
0.0
  9
$PUCSNAME
  2

  9
$PUCSORG
 10
0.0
 20
0.0
 30
0.0
  9
$PUCSXDIR
 10
1.0
 20
0.0
 30
0.0
  9
$PUCSYDIR
 10
0.0
 20
1.0
 30
0.0
  9
$USERI1
 70
     0
  9
$USERI2
 70
     0
  9
$USERI3
 70
     0
  9
$USERI4
 70
     0
  9
$USERI5
 70
     0
  9
$USERR1
 40
0.0
  9
$USERR2
 40
0.0
  9
$USERR3
 40
0.0
  9
$USERR4
 40
0.0
  9
$USERR5
 40
0.0
  9
$WORLDVIEW
 70
     1
  9
$SHADEDGE
 70
     3
  9
$SHADEDIF
 70
    70
  9
$TILEMODE
 70
     1
  9
$MAXACTVP
 70
    64
  9
$PLIMCHECK
 70
     0
  9
$PEXTMIN
 10
0.0
 20
0.0
 30
0.0
  9
$PEXTMAX
 10
0.0
 20
0.0
 30
0.0
  9
$PLIMMIN
 10
0.0
 20
0.0
  9
$PLIMMAX
 10
12.0
 20
9.0
  9
$UNITMODE
 70
     0
  9
$VISRETAIN
 70
     1
  9
$PLINEGEN
 70
     0
  9
$PSLTSCALE
 70
     1
  0
ENDSEC
  0
SECTION
  2
TABLES
  0
TABLE
  2
VPORT
 70
     1
  0
VPORT
  2
*ACTIVE
 70
     0
 10
0.0
 20
0.0
 11
1.0
 21
1.0
 12
16.951916995007679
 22
25.036029728629661
 13
0.0
 23
0.0
 14
0.5
 24
0.5
 15
0.5
 25
0.5
 16
0.0
 26
0.0
 36
1.0
 17
0.0
 27
0.0
 37
0.0
 40
75.046846935325433
 41
2.3160305343511451
 42
50.0
 43
0.0
 44
0.0
 50
0.0
 51
0.0
 71
     0
 72
  1000
 73
     1
 74
     3
 75
     0
 76
     1
 77
     0
 78
     0
  0
ENDTAB
  0
TABLE
  2
LTYPE
 70
     2
  0
LTYPE
  2
CONTINUOUS
 70
     0
  3
Solid line
 72
    65
 73
     0
 40
0.0
  0
ENDTAB
  0
TABLE
  2
LAYER
 70
     1
  0
LAYER
  2
0
 70
     0
 62
     7
  6
CONTINUOUS
  0
ENDTAB
  0
TABLE
  2
STYLE
 70
     2
  0
STYLE
  2
STANDARD
 70
     0
 40
0.0
 41
1.0
 50
0.0
 71
     0
 42
0.2
  3
txt
  4

  0
STYLE
  2
ANNOTATIVE
 70
     0
 40
0.0
 41
1.0
 50
0.0
 71
     0
 42
0.2
  3
txt
  4

  0
ENDTAB
  0
TABLE
  2
VIEW
 70
     0
  0
ENDTAB
  0
TABLE
  2
UCS
 70
     0
  0
ENDTAB
  0
TABLE
  2
APPID
 70
     8
  0
APPID
  2
ACAD
 70
     0
  0
APPID
  2
ACADANNOTATIVE
 70
     0
  0
APPID
  2
ACADANNOPO
 70
     0
  0
APPID
  2
ACAD_DSTYLE_DIMJAG
 70
     0
  0
APPID
  2
ACAD_DSTYLE_DIMTALN
 70
     0
  0
APPID
  2
ACAD_MLEADERVER
 70
     0
  0
APPID
  2
ACAD_NAV_VCDISPLAY
 70
     0
  0
APPID
  2
ACAD_EXEMPT_FROM_CAD_STANDARDS
 70
     0
  0
ENDTAB
  0
TABLE
  2
DIMSTYLE
 70
     3
  0
DIMSTYLE
  2
STANDARD
 70
     0
  3

  4

  5

  6

  7

 40
1.0
 41
0.18
 42
0.0625
 43
0.38
 44
0.18
 45
0.0
 46
0.0
 47
0.0
 48
0.0
140
0.18
141
0.09
142
0.0
143
25.399999999999999
144
1.0
145
0.0
146
1.0
147
0.09
 71
     0
 72
     0
 73
     1
 74
     1
 75
     0
 76
     0
 77
     0
 78
     0
170
     0
171
     2
172
     0
173
     0
174
     0
175
     0
176
     0
177
     0
178
     0
  0
DIMSTYLE
  2
ANNOTATIVE
 70
     0
  3

  4

  5

  6

  7

 40
0.0
 41
0.18
 42
0.0625
 43
0.38
 44
0.18
 45
0.0
 46
0.0
 47
0.0
 48
0.0
140
0.18
141
0.09
142
0.0
143
25.399999999999999
144
1.0
145
0.0
146
1.0
147
0.09
 71
     0
 72
     0
 73
     1
 74
     1
 75
     0
 76
     0
 77
     0
 78
     0
170
     0
171
     2
172
     0
173
     0
174
     0
175
     0
176
     0
177
     0
178
     0
  0
ENDTAB
  0
ENDSEC
  0
SECTION
  2
BLOCKS
  0
BLOCK
  8
0
  2
$MODEL_SPACE
 70
     0
 10
0.0
 20
0.0
 30
0.0
  3
$MODEL_SPACE
  1

  0
ENDBLK
  5
29D
  8
0
  0
BLOCK
 67
     1
  8
0
  2
$PAPER_SPACE
 70
     0
 10
0.0
 20
0.0
 30
0.0
  3
$PAPER_SPACE
  1

  0
ENDBLK
  5
299
 67
     1
  8
0
  0
ENDSEC
  0
SECTION
  2
ENTITIES
  0
LINE
  5
1CB
  8
0
 10
39.380326630844628
 20
3.3744011070218281
 30
0.0
 11
39.380326630844628
 21
56.374401107021832
 31
0.0
  0
LINE
  5
1CC
  8
0
 10
21.580326630844631
 20
56.374401107021832
 30
0.0
 11
21.580326630844631
 21
3.3744011070218281
 31
0.0
  0
LINE
  5
1CD
  8
0
 10
17.580326630844631
 20
3.3744011070218281
 30
0.0
 11
17.580326630844631
 21
56.374401107021832
 31
0.0
  0
LINE
  5
1CE
  8
0
 10
48.380326630844628
 20
25.374401107021839
 30
0.0
 11
43.380326630844628
 21
25.374401107021839
 31
0.0
  0
LINE
  5
1CF
  8
0
 10
43.380326630844628
 20
25.374401107021839
 30
0.0
 11
43.380326630844628
 21
3.3744011070218281
 31
0.0
  0
LINE
  5
1D0
  8
0
 10
43.380326630844628
 20
56.374401107021832
 30
0.0
 11
43.380326630844628
 21
34.374401107021832
 31
0.0
  0
LINE
  5
1D1
  8
0
 10
43.380326630844628
 20
34.374401107021832
 30
0.0
 11
48.380326630844628
 21
34.374401107021832
 31
0.0
  0
LINE
  5
1D2
  8
0
 10
48.380326630844628
 20
34.374401107021832
 30
0.0
 11
48.380326630844628
 21
25.374401107021839
 31
0.0
  0
LINE
  5
1D3
  8
0
 10
12.980326630844621
 20
24.374401107021828
 30
0.0
 11
9.9803266308446261
 21
24.374401107021828
 31
0.0
  0
LINE
  5
1D4
  8
0
 10
9.9803266308446261
 20
24.374401107021828
 30
0.0
 11
9.9803266308446261
 21
9.3744011070218267
 31
0.0
  0
LINE
  5
1D5
  8
0
 10
9.9803266308446261
 20
9.3744011070218267
 30
0.0
 11
12.980326630844621
 21
9.3744011070218267
 31
0.0
  0
LINE
  5
1D6
  8
0
 10
12.980326630844621
 20
9.3744011070218267
 30
0.0
 11
12.980326630844621
 21
24.374401107021828
 31
0.0
  0
LINE
  5
1D7
  8
0
 10
51.98032663084463
 20
24.374401107021828
 30
0.0
 11
48.98032663084463
 21
24.374401107021828
 31
0.0
  0
LINE
  5
1D8
  8
0
 10
48.98032663084463
 20
24.374401107021828
 30
0.0
 11
48.98032663084463
 21
9.3744011070218267
 31
0.0
  0
LINE
  5
1D9
  8
0
 10
48.98032663084463
 20
9.3744011070218267
 30
0.0
 11
51.98032663084463
 21
9.3744011070218267
 31
0.0
  0
LINE
  5
1DA
  8
0
 10
51.98032663084463
 20
9.3744011070218267
 30
0.0
 11
51.98032663084463
 21
24.374401107021828
 31
0.0
  0
LINE
  5
1DB
  8
0
 10
51.98032663084463
 20
50.374401107021811
 30
0.0
 11
48.98032663084463
 21
50.374401107021811
 31
0.0
  0
LINE
  5
1DC
  8
0
 10
48.98032663084463
 20
50.374401107021811
 30
0.0
 11
48.98032663084463
 21
35.374401107021832
 31
0.0
  0
LINE
  5
1DD
  8
0
 10
48.98032663084463
 20
35.374401107021832
 30
0.0
 11
51.98032663084463
 21
35.374401107021832
 31
0.0
  0
LINE
  5
1DE
  8
0
 10
51.98032663084463
 20
35.374401107021832
 30
0.0
 11
51.98032663084463
 21
50.374401107021811
 31
0.0
  0
LINE
  5
1DF
  8
0
 10
12.980326630844621
 20
50.374401107021811
 30
0.0
 11
9.9803266308446261
 21
50.374401107021811
 31
0.0
  0
LINE
  5
1E0
  8
0
 10
9.9803266308446261
 20
50.374401107021811
 30
0.0
 11
9.9803266308446261
 21
35.374401107021832
 31
0.0
  0
LINE
  5
1E1
  8
0
 10
9.9803266308446261
 20
35.374401107021832
 30
0.0
 11
12.980326630844621
 21
35.374401107021832
 31
0.0
  0
LINE
  5
1E2
  8
0
 10
12.980326630844621
 20
35.374401107021832
 30
0.0
 11
12.980326630844621
 21
50.374401107021811
 31
0.0
  0
LINE
  5
1E3
  8
0
 10
57.48032663084463
 20
3.3744011070218281
 30
0.0
 11
4.4803266308446252
 21
3.3744011070218281
 31
0.0
  0
LINE
  5
1E4
  8
0
 10
4.4803266308446252
 20
3.3744011070218281
 30
0.0
 11
4.4803266308446252
 21
56.374401107021832
 31
0.0
  0
LINE
  5
1E5
  8
0
 10
4.4803266308446252
 20
56.374401107021832
 30
0.0
 11
57.48032663084463
 21
56.374401107021832
 31
0.0
  0
LINE
  5
1E6
  8
0
 10
57.48032663084463
 20
56.374401107021832
 30
0.0
 11
57.48032663084463
 21
3.3744011070218281
 31
0.0
  0
LINE
  5
2B3
  8
0
 10
4.4803266308446252
 20
56.374401107021832
 30
0.0
 11
4.4803266308446261
 21
61.374401107021832
 31
0.0
  0
LINE
  5
2B4
  8
0
 10
4.4803266308446261
 20
61.374401107021832
 30
0.0
 11
57.48032663084463
 21
61.374401107021832
 31
0.0
  0
LINE
  5
2B5
  8
0
 10
57.48032663084463
 20
61.374401107021832
 30
0.0
 11
57.48032663084463
 21
56.374401107021832
 31
0.0
  0
LINE
  5
2B6
  8
0
 10
57.48032663084463
 20
56.374401107021832
 30
0.0
 11
57.48032663084463
 21
3.3744011070218281
 31
0.0
  0
LINE
  5
2B7
  8
0
 10
57.48032663084463
 20
3.3744011070218281
 30
0.0
 11
57.48032663084463
 21
-1.6255988929781711
 31
0.0
  0
LINE
  5
2B8
  8
0
 10
57.48032663084463
 20
-1.6255988929781711
 30
0.0
 11
4.4803266308446359
 21
-1.625598892978158
 31
0.0
  0
LINE
  5
2B9
  8
0
 10
4.4803266308446359
 20
-1.625598892978158
 30
0.0
 11
4.4803266308446359
 21
3.3744011070218281
 31
0.0
  0
LINE
  5
2BA
  8
0
 10
17.580326630844631
 20
3.3744011070218281
 30
0.0
 11
17.580326630844631
 21
-1.625598892978162
 31
0.0
  0
LINE
  5
2BB
  8
0
 10
17.580326630844631
 20
-1.625598892978162
 30
0.0
 11
21.580326630844631
 21
-1.62559889297816
 31
0.0
  0
LINE
  5
2BC
  8
0
 10
21.580326630844631
 20
-1.62559889297816
 30
0.0
 11
21.580326630844631
 21
3.3744011070218281
 31
0.0
  0
LINE
  5
2BD
  8
0
 10
21.580326630844631
 20
56.374401107021832
 30
0.0
 11
21.580326630844631
 21
61.374401107021832
 31
0.0
  0
LINE
  5
2BE
  8
0
 10
17.580326630844631
 20
56.374401107021832
 30
0.0
 11
17.580326630844631
 21
61.374401107021832
 31
0.0
  0
LINE
  5
2BF
  8
0
 10
39.380326630844628
 20
56.374401107021832
 30
0.0
 11
39.380326630844628
 21
61.374401107021832
 31
0.0
  0
LINE
  5
2C0
  8
0
 10
43.380326630844628
 20
56.374401107021832
 30
0.0
 11
43.380326630844628
 21
61.374401107021832
 31
0.0
  0
LINE
  5
2C1
  8
0
 10
39.380326630844628
 20
3.3744011070218281
 30
0.0
 11
39.380326630844628
 21
-1.6255988929781671
 31
0.0
  0
LINE
  5
2C2
  8
0
 10
39.380326630844628
 20
-1.6255988929781671
 30
0.0
 11
43.380326630844628
 21
-1.6255988929781711
 31
0.0
  0
LINE
  5
2C3
  8
0
 10
43.380326630844628
 20
-1.6255988929781711
 30
0.0
 11
43.380326630844628
 21
3.3744011070218281
 31
0.0
  0
ENDSEC
  0
EOF
